<svg xmlns="http://www.w3.org/2000/svg" viewBox="0 0 393.44 117.71"><g id="Lager_2" data-name="Lager 2"><g id="Lager_1-2" data-name="Lager 1"><path d="M131.78,117c-.31-.07-.54-.3-.92-.38.23-3.62-.16-7,.08-10.93,0-.92-.08-1.85-.08-2.85,0-1.61-.16-3.08-.08-4.85.23-4.61.23-9.39.23-14.62,0-3.39-.07-6.85-.07-10.24a87.67,87.67,0,0,0-.08-10c2.23-.23,6.31-.08,9.47-.08,1.46.08,2.77-.15,4.23-.15a17.4,17.4,0,0,1,8.93,1.92,21.08,21.08,0,0,1,2.23,1.46,6.61,6.61,0,0,1,.92,1.24,14.62,14.62,0,0,1,1.62,2.84L159,72a40,40,0,0,1,.69,4.62,14.6,14.6,0,0,1-.84,7.31,12.25,12.25,0,0,1-3.24,5.39l1.85,1.61a6.82,6.82,0,0,1,1.69,1.7,10.18,10.18,0,0,1,.62,1.38,12.51,12.51,0,0,1,.92,2.08l.16,1.46.15,1.62c0,.92.23,1.77.23,2.69l-.23,1.31a3.52,3.52,0,0,1-.23,1.23,12.2,12.2,0,0,1-1.31,4.77,14.68,14.68,0,0,1-1.84,3.62,15.51,15.51,0,0,1-2.7,2.31c-.31.69-1.08.77-1.92,1-.62.54-1.46.46-2.31.69a17.66,17.66,0,0,1-3,.23,53.53,53.53,0,0,0-6.08,0c-.7,0-1.39.08-2.24.08-1.61.08-3.3,0-4.92-.08A9.54,9.54,0,0,1,131.78,117Zm8.7-40.25a1.53,1.53,0,0,1,0,.85,45.65,45.65,0,0,1,0,7.93,41.13,41.13,0,0,0,6.08,0,9.19,9.19,0,0,0,3.31-1.85,23,23,0,0,0,.15-4.08c0-.54.08-.85.08-1.39a16,16,0,0,0-.08-2.07c-.07-.93-.46-1.77-.54-2.7-1.61-2.08-5.85-1.38-9-1.15A44.23,44.23,0,0,1,140.48,76.76Zm10.85,22a5.09,5.09,0,0,0-1.08-3.08,5.89,5.89,0,0,0-3.31-1c-.38,0-.77.08-1.15.08a27.7,27.7,0,0,0-5.08.08c-.23,5.31.08,8.85,0,13.16a25.13,25.13,0,0,0,6.77,0c1.31-.23,2.16-.46,2.77-1.31a7.16,7.16,0,0,0,.85-1.38,2.54,2.54,0,0,0,.15-1.85c0-1,.08-2.31.08-3.46Z" style="fill:#1d1a55"/><path d="M167.34,116.55c0-1.54,0-3.23.08-5.62a19.31,19.31,0,0,0,.07-4.23,17.57,17.57,0,0,1,0-1.92c.08-1.62.08-3.31.08-5.08,0-3.16.23-6.78,0-10.78-.08-1.77.23-3.46.23-5.31,0-1.46-.07-2.62,0-4.23.08-2.08.16-4.54.16-7.08,0-3.31-.16-5.7-.08-8.7.08-.23.31-.38.23-.69a46.59,46.59,0,0,1,5.7-.23,63.69,63.69,0,0,1,13.54,1.15,8.58,8.58,0,0,1,2.7,1c.07.23.23-.23.46,0a12.87,12.87,0,0,1,4.15,4.7,8.54,8.54,0,0,0,1,2.31,13.25,13.25,0,0,1,.54,2.23c.31,1.31,0,2.85.08,4.31a9.64,9.64,0,0,1,.08,2.08,23.71,23.71,0,0,1-.7,4.69,11.47,11.47,0,0,1-1.3,3.46,15.57,15.57,0,0,1-3.62,3.85,5.9,5.9,0,0,1-1.69,1.39,30.2,30.2,0,0,0,1.84,5.46c.39,1.47.85,2.85,1.39,4.31l1.46,4.24c.85,2.07,1.54,4.23,2.23,6.46.39,1,1,1.85.62,2.85a12.29,12.29,0,0,1-6.31.15,27.11,27.11,0,0,0-2.93-.61c-.69-2.24-1.38-4.31-2.23-6.78-.54-1.54-.85-3.07-1.38-4.69-.85-2.7-1.7-5.23-2.62-7.93a5.27,5.27,0,0,1-.62-1.85,7.26,7.26,0,0,1-3.15,0c-.23,3.62-.39,7.55-.31,11.32,0,.31-.08.61-.08.92.08,2.08.16,4.08.08,6v2.08c-.08.54-.39.77-.39,1.31a11.38,11.38,0,0,1-5.46.39A15.6,15.6,0,0,1,167.34,116.55Zm1.23-52.87c0-.08.23-.23,0-.23C168.5,63.68,168.19,63.68,168.57,63.68Zm8.93,22c3.31.08,6.39.08,8.31-1.23.54-.54.47-1.08.7-2a17.56,17.56,0,0,0,.23-3.47c-.08-1.61.23-3.54-.31-4.69A2.88,2.88,0,0,0,185,72.91a10.5,10.5,0,0,0-4.47-.46c-.84.08-2.08,0-3.08,0,0,2.85.08,6.7,0,9.85A10,10,0,0,0,177.5,85.69Z" style="fill:#1d1a55"/><path d="M234.38,65.68l-.23.38a4.35,4.35,0,0,1-.39.93c-.69,1.77-1.46,3.46-2.15,5l-.54.92c-.31.85-.54,1.77-.92,2.62-.85,1.54-1.24,3.16-2.08,4.93-1.46,3.15-2.85,6.69-4.08,9.77a21.69,21.69,0,0,0-1.46,3.62c-.08,3.31.3,7.23.07,10.62-.07,1.85-.15,3.77-.15,5.69,0,2.39.31,4.85.08,6.93-.39.23-.7.08-1.08.08-1.31.08-2.69.46-4.16.46l-2.23-.15a6.29,6.29,0,0,1-2.08-.39c0-.92,0-2.08.08-3.31s.15-2.31.15-3.46l-.23-2.08c-.23-4.92-.07-10,.16-14.93l-1.93-4.46a11.89,11.89,0,0,0-1.15-3.16c-1.85-4-3.54-8.16-5.16-12.78-.69-2.15-1.85-4.08-2.69-6.15a14.5,14.5,0,0,0-1.39-3.16,1.45,1.45,0,0,0,.31-.62,53.76,53.76,0,0,1,9.24,0,2.11,2.11,0,0,0,1,0c1.23,3.16,2.31,6.39,3.46,9.86A29.94,29.94,0,0,0,216,76.22c.54,1.47,1.39,2.93,1.93,4.47.92-1.85,1.69-3.77,2.54-5.54l.31-1c1.46-3.39,2.77-7.32,4-10.93a42.72,42.72,0,0,1,9.93-.08C235.3,63.75,234.76,64.83,234.38,65.68Z" style="fill:#1d1a55"/><path d="M270.25,68.37a9.42,9.42,0,0,1-1.08,3.85c-.39.23-.69-.08-1.08-.08a25,25,0,0,0-4.15,0c-1,0-2,.08-3.16,0H259.7c-.38-.07-.38-.3-.77-.07a25.49,25.49,0,0,0-.07,5.92c0,1.16-.16,2.31-.16,3.47,0,.84.16,1.77.16,2.69,0,1.46-.16,2.85-.24,3.85a11.84,11.84,0,0,1,.16,2.85c0,.23.15.38.15.61a31,31,0,0,1,0,4.62c0,1.54-.07,3.08-.07,4.62-.08,1.31,0,2.62,0,4.08s0,2.92,0,4.38c0,2.85-.31,5.24-.31,8.09-1.16.07-2.23.46-3.39.46-.08,0-.15-.08-.23-.08a10.77,10.77,0,0,1-3.08-.15,5.62,5.62,0,0,1-2.69-.7c.23-2.77,0-5.31,0-8.31,0-2.69.31-5.15.31-8,0-3-.08-5.93-.08-9s-.31-6-.08-9c.23-2.39-.07-4.31.16-6.7a14,14,0,0,0,.07-3.54c-1.92-.08-3.84,0-5.92,0-.85,0-1.77-.15-2.62-.15a6,6,0,0,1-2.39-.31,15.62,15.62,0,0,1,.47-9c1.77-.23,4.15.16,6.23.16,5.54.07,11.78-.16,17.39.07a34.32,34.32,0,0,0,5.7.08c.23,0,.46-.31.69-.23.39,0,.85,2.16.85,2.54A13.78,13.78,0,0,1,270.25,68.37Z" style="fill:#1d1a55"/><path d="M304.27,116c.07.39.38.54.15.93a60.68,60.68,0,0,1-9.16.23.78.78,0,0,0-.38-.31,16,16,0,0,0-.77-3.54,62.36,62.36,0,0,1-1.46-6.7c-3.78-.23-6.55.24-10.47.24-.85,3.38-1.31,7-2.47,10.31a45.17,45.17,0,0,1-9.08.08c-.31-.24-.15-.62-.07-1,.38-1.77.69-4,1-6.08a15.53,15.53,0,0,0,.46-2.46c.38-1.85.61-3.62,1-5.46l.77-2.85a4.68,4.68,0,0,1,.46-1.92c.23-1.54.39-3.7.69-5.55l.62-2.38.23-1.31c.23-.54.62-1,.38-1.54.08-.23.24-.15.31-.38.23-1.93.85-4.62,1.23-7.16a8.53,8.53,0,0,1,.54-2,5.44,5.44,0,0,1,.39-2,3.6,3.6,0,0,0,.38-1.39c.23-1.31.39-2.77.62-4.23l.23-1.08c.23-.85.31-2.16.62-3.16a6.65,6.65,0,0,1,.84-2.46,40.52,40.52,0,0,1,11.39-.08c.23,0,.16.31.39.23a70.2,70.2,0,0,0,1.46,7.32l.38,2.46.62,2.23c.62,2.39,1,4.7,1.54,7.16.85,4.62,2,8.77,2.92,13.7.31,1.46.54,2.85.77,4.31.23,1.15.77,2.31,1.08,3.54.54,2.46.92,5,1.54,7.46l.39,1.93.3,1.85ZM290.64,97c-.61-3-1.15-6.23-2-9.62-.38-1.77-1.46-4-1.46-5.77-.92,5.23-2.15,10.31-3.39,15.55A49.31,49.31,0,0,0,290.64,97Z" style="fill:#1d1a55"/><path d="M318,117.32c-2.54.08-5.84.16-7.92-.46-.08-1.23-.16-2.69-.16-4.16s.08-2.92.16-4.38a25.1,25.1,0,0,1,8.31-.08,8.5,8.5,0,0,1,.46,4.08,43.59,43.59,0,0,1-.38,4.39Z" style="fill:#3065af"/><path d="M357.76,116.48c0,.23-.31.23-.23.53a63.83,63.83,0,0,1-6.62.08c-1-.08-2-.23-2.93-.23a8.36,8.36,0,0,0-.92-2.08c-.92-2.69-2.15-5-3.15-7.77a18.37,18.37,0,0,1-1.47-3.77l-1.54-3.93c-1.15-3.15-2.77-6.16-4.23-9.46A7.49,7.49,0,0,1,336,88c-.23-.08-.31-.54-.39-.77-.07,5.54.08,10.54.16,15.85,0,.93,0,1.85.07,2.77s.16,1.93.16,2.85c0,.7-.16,1.39-.16,2a49.84,49.84,0,0,0-.23,5.85c-.31.08-.46-.07-.54.23-2.69.93-5.77.54-8.77,0a3,3,0,0,1,0-2.15,5.05,5.05,0,0,1-.15-1.85,21.13,21.13,0,0,0,.07-3.08c-.07-1-.23-1.92-.23-2.77a24.54,24.54,0,0,1,.16-3.31c.07-1.92-.16-3.54-.08-5.62V92.08c0-.93.15-1.85.08-2.7-.08-2.46.15-5.08.15-7.77-.08-5.85-.31-11.7,0-18.24a30.34,30.34,0,0,1,8.39-.31c.08.23.15.08.38.16a20.61,20.61,0,0,1,1.85,4.46c1.46,2.15,2.08,4.93,3.23,7.31.93,2.08,1.85,4.08,2.7,6.16a104.24,104.24,0,0,0,5.38,12.31l.31-4.85c.08-1.77,0-3.31-.07-5.08,0-3.38.07-6.85,0-10.31V71.14c0-3-.08-5.23,0-8a20.28,20.28,0,0,1,9.16.23c.07,1.77.07,3.39.07,5.16s.08,3.46.08,5.23-.23,3.54-.23,5.31c.23,5.85-.31,12.08-.08,17.32.08,1.31,0,2.69,0,4.15.08,2.7.08,5.47.31,8.16C357.84,111.4,357.53,113.94,357.76,116.48Z" style="fill:#1d1a55"/><path d="M383.24,117a20.36,20.36,0,0,1-7.16.39,12.7,12.7,0,0,1-2.77-.54,19,19,0,0,1-1.85-.85c-.62-.38-1.31-.61-1.85-1a17.72,17.72,0,0,0-1.77-1.61c-1-1.46-2.23-2.54-2.85-4.31a17.48,17.48,0,0,1-.61-2.7,46.4,46.4,0,0,1-.31-5.69c0-.93.16-1.77.23-2.62,0-1.23-.54-2.92,0-3.85-.31-.07-.15-.77-.15-1.31,0-3.77-.23-6.85,0-11.46.23-4,0-8.09,0-12.09a34,34,0,0,0,0-5.62c.08-.23.31-.23.31-.53L368,62.6c1.84-.23,3.69.38,5.54.46.69.69-.08,2.54.31,3.31-.31.23.07.62-.16.85a39.89,39.89,0,0,1,.16,4.31c0,1.54.07,3.08,0,4.69,0,2.7.07,5.78.07,9.08l-.23,9.47c-.07,2.39.08,4.77.16,6.85,0,1.46-.23,2.7.3,3.93a3.76,3.76,0,0,0,2.93,2.38,7.51,7.51,0,0,0,2.08.23,2.34,2.34,0,0,0,.69-.23c.23-.07.46,0,.69-.07.93-.24,2.39-1,2.7-1.85.23-.31.15-.77.23-1.16a2.5,2.5,0,0,0,0-1.84,43.26,43.26,0,0,0,0-6.24c-.08-1.92-.08-4.54-.08-6.16,0-.07.23-.46-.08-.46,0-.23.23.08.16-.23,0-2.69.15-5.62.23-8.46V76.22c0-2.07-.08-3.85-.08-6.08,0-.38.15-.77.15-1.15s-.07-.69-.07-1.08l.15-4.62a7.1,7.1,0,0,1,2-.46,9.12,9.12,0,0,1,2-.15,8.84,8.84,0,0,1,5.31.46c.08.23,0,.46.24.54.23,4.31-.47,7.77-.24,11.85.08,1.46.08,2.77.08,4.31,0,3-.08,5.7-.08,8.54a64.2,64.2,0,0,1-.07,7.7c.31,1.85-.16,4.16-.08,6.23a21.4,21.4,0,0,1,.15,3.16,8.11,8.11,0,0,1-.38,1.15c-.23.85-.31,2.16-.62,3.16-.07.23-.23.23-.23.46s0,.23-.07.46l-.47.62a7,7,0,0,1-1.69,2.08,11.57,11.57,0,0,1-1.46,1.38c-.23.23-.62.23-.92.46a6.91,6.91,0,0,1-.77.54l-.93.39-1,.61ZM364.38,63.6c.08.08.15.08.31.08C364.69,63.45,364.38,63.52,364.38,63.6Z" style="fill:#1d1a55"/><path d="M0,111.28V7.57L8.25,0,111.72,0a5.73,5.73,0,0,1,5.36,5.46V111.64a5.67,5.67,0,0,1-5.42,5.44H5.48Z" style="fill:#1d1a55"/><path d="M0,19.72S.09,28.4,0,29s8.48-.6,8.53-1.94S3.63,19.74,0,19.72Z" style="fill:#3065af"/><path d="M9.76,13.87c1.29-.17,13-2.07,14-.71.63.92.78,8-.4,8-12.19-.34-14.9-1.92-15.78-3C7.11,17.57,8.32,14.07,9.76,13.87Z" style="fill:#3098d5"/><path d="M7.56,42.41c.83-.27,12.12-4,13-3.78,1.89.55,4,12.16,2.19,11.93S6.4,48.72,5.37,47.84,6.87,42.64,7.56,42.41Z" style="fill:#3098d5"/><path d="M5.43,117.09H33.21s6.29-42.41.95-48.61S1.65,70.59,0,71.22v40.56A5.7,5.7,0,0,0,5.43,117.09Z" style="fill:#274193"/><path d="M44.46,117.08H55.07s26.52-49.67,25-49.89-28.72-1.67-33.16-1.54C42.83,65.78,40.77,117.08,44.46,117.08Z" style="fill:#3065af"/><path d="M72,117.09h37.85s-7.84-10.19-9.59-11c-1-.49-24-6-25-3.25C74.42,105.12,69.9,117.09,72,117.09Z" style="fill:#3065af"/><path d="M78.88,95.77c-1.64-1.21,6-23.17,7.9-22S96.33,91.08,96,92.19,80.65,97.08,78.88,95.77Z" style="fill:#3098d5"/><path d="M117.08,110.4V6S99.86,26.19,98.85,28.86s-2.76,17.78-2.3,25.8.73,16.49,3.5,21.74S112.84,107.36,117.08,110.4Z" style="fill:#274193"/><path d="M44.25,57.23c2.08,1.33,25.11,1.7,28.34-1.71C74.17,53.84,57.06,32,55.51,30.89c-1.75-1.29-8-1.67-9.21.55S41.25,55.32,44.25,57.23Z" style="fill:#274193"/><path d="M62.86,31.57c.57-1.78,15.2-11.69,17.29-10.43S91,32.81,90.71,34.59s-1.12,28.36-4.43,28S61.54,35.66,62.86,31.57Z" style="fill:#3065af"/><path d="M51.06,11.54c5.73-.8,19,2.07,18.93,3.29s-15.67,2.08-18.93,3.81C49.84,19.28,49.09,11.81,51.06,11.54Z" style="fill:#3098d5"/><path d="M75.3,0h34.55S93.47,27,91.91,26.77,70.2,0,75.3,0Z" style="fill:#274193"/><path d="M0,11V5.69A5.68,5.68,0,0,1,5.67,0H18.88A21.53,21.53,0,0,0,0,11Z" style="fill:#3065af"/></g></g></svg>