<svg xmlns="http://www.w3.org/2000/svg" viewBox="0 0 821 821.05"><g id="Lager_2" data-name="Lager 2"><g id="Lager_1-2" data-name="Lager 1"><path d="M0,780.29V53.09L57.83.11,783.42,0C798.36,0,821,14.72,821,38.28V782.8c0,13-11,37-38,38.2H38.4Z" style="fill:#061c58"/><path d="M0,138.28S.6,199.16,0,203s59.49-4.2,59.81-13.57S25.47,138.45,0,138.28Z" style="fill:#2567ac"/><path d="M68.42,97.28c9-1.22,91.39-14.51,98-5,4.48,6.43,5.5,56.23-2.76,56C78.21,145.86,59.15,134.77,53,127.1,49.89,123.18,58.34,98.64,68.42,97.28Z" style="fill:#3098d0"/><path d="M53,297.4c5.81-1.9,84.95-28.42,91.4-26.53,13.24,3.88,27.88,85.28,15.39,83.66s-115-12.92-122.19-19.06S48.17,299,53,297.4Z" style="fill:#3098d0"/><path d="M38.09,821l194.75,0S277,523.62,239.51,480.12,11.6,495,0,499.38v284.4C.35,797.44,12.13,819.73,38.09,821Z" style="fill:#004393"/><path d="M311.78,821h74.4S572.12,472.72,561.34,471.14,360,459.43,328.76,460.37C300.34,461.24,285.88,821,311.78,821Z" style="fill:#2567ac"/><path d="M504.86,821.05H770.25S715.32,749.56,703,743.78C695.71,740.33,534.63,702,527.74,721,521.86,737.14,490.15,821.05,504.86,821.05Z" style="fill:#2567ac"/><path d="M553.11,671.57c-11.52-8.52,42.28-162.53,55.4-154.34s67,121.45,64.81,129.2S565.55,680.77,553.11,671.57Z" style="fill:#3098d0"/><path d="M821,774.13V42S700.25,183.65,693.15,202.39,673.76,327.07,677,383.28s5.17,115.64,24.55,152.47S791.22,752.81,821,774.13Z" style="fill:#004393"/><path d="M310.27,401.33c14.59,9.32,176.1,11.9,198.71-12,11.13-11.77-108.86-164.73-119.7-172.73-12.28-9-56.21-11.72-64.61,3.83S289.25,387.9,310.27,401.33Z" style="fill:#004393"/><path d="M440.76,221.39c4-12.52,106.6-82,121.23-73.12s76.06,81.79,74.09,94.29S628.22,441.41,605,438.83,431.53,250.08,440.76,221.39Z" style="fill:#2567ac"/><path d="M358,80.92c40.2-5.6,133.51,14.51,132.77,23.09S380.88,118.57,358,130.68C349.5,135.19,344.21,82.85,358,80.92Z" style="fill:#3098d0"/><path d="M528,0H770.25S655.44,189.64,644.46,187.7,492.28,0,528,0Z" style="fill:#004393"/><path d="M0,77.12V39.86A39.87,39.87,0,0,1,39.75.11H132.4C124.4,1.45,47.86-3.74,0,77.12Z" style="fill:#2567ac"/><path d="M441.54,456.87c-.52,0-.77,0-1-.25,0-.26,1-.51,1,.25m66.23,176.45,3.32-2.05,3.07-1.27a23.06,23.06,0,0,0,2.56-1.79c1-.77,2.3-.77,3.06-1.54a39.7,39.7,0,0,0,4.87-4.61c2.81-2.29,3.83-4.08,5.62-6.9l1.53-2c.26-.77,0-1.28.26-1.54,0-.77.51-.77.77-1.53,1-3.33,1.28-7.68,2-10.48a30.6,30.6,0,0,0,1.28-3.85c.26-2.81-.25-7.41-.51-10.48-.25-6.9,1.28-14.57.26-20.71,1-8.95.25-17.39.25-25.57,0-9.47.26-18.41.26-28.39,0-5.11,0-9.46-.26-14.32-.76-13.55,1.53-25.05.77-39.38-.77-.25-.51-1-.77-1.79-5.11-1.79-11.76-3.32-17.64-1.53-1.79-.26-4.35.25-6.65.51a23.19,23.19,0,0,0-6.65,1.53l-.51,15.34c0,1.29.26,2.31.26,3.59s-.52,2.56-.52,3.83c0,7.42.26,13.3.26,20.2v17.39c-.26,9.47-.77,19.18-.77,28.13.26,1-.51,0-.51.77,1,0,.25,1.28.25,1.53,0,5.37,0,14.07.26,20.46.26,7.16.77,14.58,0,20.72.77,1.53.77,3.58,0,6.13-.26,1.28,0,2.81-.76,3.84-1,2.81-5.88,5.37-9,6.14-.76.25-1.53,0-2.3.25a8.2,8.2,0,0,1-2.3.77c-2.81.25-5.11-.52-6.9-.77A12.45,12.45,0,0,1,473,596c-1.79-4.1-1-8.19-1-13-.26-6.9-.77-14.83-.52-22.76l.77-31.45c0-11-.25-21.23-.25-30.18.25-5.36,0-10.48,0-15.59-.26-4.86.25-10-.52-14.32.77-.77-.5-2.05.52-2.82-1.28-2.56,1.27-8.69-1-11-6.14-.25-12.28-2.29-18.42-1.53l-11.76,2c0,1-.77,1-1,1.79.76,5.88.25,12.27,0,18.66,0,13.3.76,26.86,0,40.15-.77,15.34,0,25.57,0,38.1,0,1.79-.52,4.1.51,4.35-1.79,3.07,0,8.7,0,12.79-.26,2.81-.77,5.62-.77,8.7a155.18,155.18,0,0,0,1,18.92c.26,3.07,1.28,5.88,2.05,9,2.05,5.88,6.14,9.46,9.46,14.31,2.82,1.8,3.58,3.59,5.88,5.38,1.79,1.27,4.09,2,6.14,3.32a64.44,64.44,0,0,0,6.14,2.82,42,42,0,0,0,9.21,1.78,67.45,67.45,0,0,0,23.78-1.28ZM431,606.47c-.77-9-.77-18.16-1-27.11,0-4.86.26-9.46,0-13.81-.76-17.39,1-38.1.26-57.53,0-5.89.51-11.77.77-17.65,0-5.88-.26-11.5-.26-17.39s0-11.25-.26-17.13c-9.46-2.82-19.94-2.56-30.43-.77-.25,9.21,0,16.62,0,26.6v6.9c.26,11.51,0,23,0,34.27.26,5.88.52,11,.26,16.87l-1,16.11a349.12,349.12,0,0,1-17.9-40.91c-2.81-6.9-5.88-13.56-8.94-20.46-3.84-7.92-5.88-17.13-10.75-24.29-1.78-5.12-3.32-10.49-6.13-14.83-.77-.26-1,.25-1.28-.52-9-1.27-19.69-.25-27.87,1-1,21.73-.26,41.17,0,60.6,0,9-.77,17.65-.51,25.83.25,2.82-.26,5.88-.26,9v19.69c-.26,6.9.51,12.28.26,18.67-.26,3.84-.77,7.16-.52,11,0,2.81.52,5.88.77,9.2a68.52,68.52,0,0,1-.25,10.23c0,1.79-.26,4.35.51,6.14-1,1.28-.77,5.37,0,7.16,10,1.79,20.19,3.07,29.15,0,.25-1,.77-.51,1.79-.77a164,164,0,0,1,.77-19.43c0-2,.51-4.35.51-6.65,0-3.07-.51-6.14-.51-9.46-.26-3.07-.26-6.14-.26-9.21-.26-17.65-.76-34.26-.51-52.68.25.77.51,2.31,1.28,2.56.25,2.3,1.53,4.09,2.3,6.13,4.86,11,10.22,21,14.07,31.46l5.11,13c1,4.86,3.06,8.44,4.86,12.53,3.32,9.21,7.41,16.88,10.48,25.83a28.25,28.25,0,0,1,3.07,6.91c3.07,0,6.39.5,9.72.76,7.15.77,14.57-.26,22-.26-.26-1,.77-1,.77-1.79-.77-8.43.25-16.87,0-25.82M318.19,633.06a137.5,137.5,0,0,0,1.27-14.57c.27-4.86.27-10.23-1.53-13.56-10-1.27-18.66-1.53-27.62.26-.25,4.86-.51,9.72-.51,14.58s.26,9.71.51,13.81c6.91,2,17.9,1.78,26.34,1.53Z" style="fill:#fff"/><path d="M614.71,346.31c4.09-17.39,8.18-34.27,11.25-51.66,0,5.89,3.58,13.3,4.86,19.18,2.81,11.26,4.6,22,6.65,32-6.91.25-14.84,1.28-22.76.51m67.5,59.07-1-6.14-1.27-6.39c-2-8.18-3.33-16.62-5.12-24.81-1-4.09-2.81-7.92-3.58-11.76-.77-4.85-1.53-9.46-2.56-14.32-3.06-16.37-6.9-30.17-9.71-45.52-1.79-8.18-3.08-15.86-5.12-23.78l-2.05-7.42-1.27-8.18c-1.79-7.93-3.84-15.85-4.86-24.29-.77.25-.51-.77-1.28-.77-13-1.28-25.83-2-37.85.25-1.79,2.31-2,5.38-2.81,8.19-1,3.32-1.28,7.67-2.05,10.48l-.76,3.59c-.77,4.85-1.28,9.71-2,14.06a12.18,12.18,0,0,1-1.27,4.6,18.06,18.06,0,0,0-1.29,6.65,29,29,0,0,0-1.79,6.65c-1.27,8.44-3.32,17.39-4.09,23.78-.25.77-.77.51-1,1.28.77,1.79-.51,3.33-1.28,5.12l-.76,4.34-2.05,7.93c-1,6.13-1.54,13.3-2.3,18.41a15.62,15.62,0,0,0-1.53,6.39l-2.56,9.47c-1.28,6.13-2,12-3.33,18.15a51,51,0,0,1-1.53,8.19c-1,6.9-2,14.31-3.33,20.19-.25,1.29-.77,2.56.26,3.33,8.95,1.28,21.22.51,30.18-.25,3.83-11,5.36-23,8.18-34.27,13,0,22.25-1.53,34.77-.77,1,8.18,3.07,14.32,4.86,22.25,1,4.09,2.31,6.9,2.56,11.76a2.79,2.79,0,0,1,1.28,1c11.25.76,19.43,0,30.43-.77.76-1.28-.26-1.79-.51-3.07ZM570.93,240.69c0-1.27-1.53-8.44-2.81-8.44-.77-.25-1.54.77-2.3.77a117.4,117.4,0,0,1-18.92-.25c-18.67-.77-39.38,0-57.8-.25-6.9,0-14.83-1.29-20.71-.52-3.07,8.44-4.35,21-1.53,29.92,2.29,1,5.11,1,7.92,1s5.88.51,8.69.51c6.91,0,13.3-.25,19.7,0,.76,4.86,0,6.91-.26,11.77-.77,7.92.26,14.32-.51,22.24-.76,10,.26,20,.26,29.92,0,10.23.25,19.95.25,29.93,0,9.46-1,17.64-1,26.59,0,10,.77,18.41,0,27.62,2.81,1.79,5.88,2,8.95,2.3,3.32.25,7.16,1.28,10.23.51.25,0,.51.25.76.25,3.84,0,7.42-1.27,11.26-1.53,0-9.46,1-17.39,1-26.85,0-4.86-.25-9.72,0-14.58,0-4.85-.25-9.2,0-13.55,0-5.11.25-10.23.25-15.34s.77-10.49,0-15.35c0-.76-.5-1.27-.5-2-.27-3.07.5-6.4-.52-9.46.25-3.33.77-7.93.77-12.79,0-3.07-.52-6.13-.52-8.95,0-3.83.52-7.67.52-11.5-.25-6.91-1-12.79.25-19.7,1.29-.76,1.29,0,2.56.26h3.58c3.84.25,7.16,0,10.49,0,4.85,0,9.71-.77,13.81,0,1.27,0,2.3,1,3.57.25,1.79-3.83,3.33-7.41,3.58-12.78a45.47,45.47,0,0,0-1-10m-104.64-7.41c-11-.76-22.76-1.53-33,.26-4.09,12-8.44,25-13.29,36.31l-1,3.32c-2.82,5.88-5.37,12.28-8.44,18.41-1.79-5.11-4.61-10-6.39-14.83-1.79-3.84-2.56-7.41-3.84-11.25-3.84-11.51-7.41-22.25-11.51-32.73a7.42,7.42,0,0,1-3.32,0,175.62,175.62,0,0,0-30.69,0,5,5,0,0,1-1,2,48.5,48.5,0,0,1,4.6,10.49c2.81,6.9,6.65,13.29,8.95,20.46,5.37,15.34,11,29.15,17.14,42.45a39.82,39.82,0,0,1,3.83,10.48l6.39,14.83c-.76,16.37-1.28,33.25-.51,49.61L395,390c0,3.84-.51,7.68-.51,11.52-.26,4.09-.26,7.92-.26,11,2.05,1,4.61,1,6.9,1.28l7.42.51c4.86,0,9.46-1.28,13.81-1.53,1.28,0,2.3.51,3.58-.26.77-6.9-.26-15.09-.26-23,0-6.4.26-12.79.52-18.93.77-11.25-.52-24.29-.26-35.29,1.28-4.86,3.07-7.93,4.86-12,4.09-10.22,8.69-22,13.55-32.48,2.82-5.88,4.09-11.25,6.9-16.36,1.29-2.81,2.06-5.88,3.08-8.69l1.78-3.07c2.31-5.12,4.87-10.74,7.17-16.62A13.24,13.24,0,0,0,464.5,243l.77-1.28c1.28-2.82,3.07-6.39,1-8.44m-207.18,1c.77,0,0,.51,0,.77-1.27,0-.25,0,0-.77M288.53,297c.25-10.49,0-23.28,0-32.74,3.32,0,7.41.25,10.22,0,4.86-.25,11-.25,14.83,1.54a9.45,9.45,0,0,1,4.86,4.6c1.79,3.84.77,10.22,1,15.6a58.53,58.53,0,0,1-.76,11.5c-.77,3.08-.51,4.87-2.3,6.65-6.4,4.35-16.62,4.35-27.62,4.1-1-3.08-.51-7.42-.25-11.25M267.81,413.82c6.91.76,13.05.76,18.16-1.28,0-1.79,1-2.55,1.27-4.35v-6.9c.26-6.39,0-13-.25-20,0-1,.25-2,.25-3.07-.25-12.53.26-25.57,1-37.59,3.07.77,8.18.77,10.48,0,.26,2.81,1.28,4.35,2.05,6.14,3.07,8.95,5.88,17.39,8.69,26.34,1.8,5.37,2.82,10.49,4.61,15.6,2.81,8.18,5.11,15.08,7.42,22.5,3.06.26,5.88,1.28,9.71,2.05a41,41,0,0,0,21-.51c1.27-3.33-.77-6.14-2.05-9.46-2.3-7.42-4.6-14.58-7.41-21.49l-4.86-14.06c-1.79-4.86-3.33-9.46-4.61-14.32-2.81-5.37-4.35-12-6.13-18.16,2.3-1,3.84-2.81,5.62-4.6a51.75,51.75,0,0,0,12-12.79,38.25,38.25,0,0,0,4.35-11.5,78.72,78.72,0,0,0,2.3-15.61,31.3,31.3,0,0,0-.25-6.9c-.26-4.86.76-10-.26-14.32a51.4,51.4,0,0,0-1.79-7.41,26.72,26.72,0,0,1-3.33-7.67A42.61,42.61,0,0,0,332,238.9c-.77-.77-1.28.77-1.54,0-2.81-1.79-5.11-2.3-8.94-3.32-13.31-3.06-29.67-3.83-45-3.83a153.54,153.54,0,0,0-18.93.77c.26,1-.51,1.53-.77,2.29-.25,10,.26,17.9.26,28.9,0,8.44-.26,16.62-.51,23.53-.26,5.37,0,9.2,0,14.06,0,6.14-1,11.77-.77,17.64.77,13.3,0,25.32,0,35.81,0,5.88,0,11.5-.25,16.87a52.56,52.56,0,0,0,0,6.4c.76,4.86,0,9.2-.26,14.06C255,400,255,405.64,255,410.75c4.35,1.79,7.94,2.3,12.79,3.07M178.26,263.71c10.49-.77,24.55-3.07,29.92,3.84.26,3.07,1.54,5.88,1.79,8.95a54.63,54.63,0,0,1,.26,6.9c0,1.79-.26,2.81-.26,4.6,0,4.86.26,9.72-.51,13.56-3.07,2-6.14,5.11-11,6.13-6.14,1-13.81,0-20.21,0a150.46,150.46,0,0,0,0-26.34,5.14,5.14,0,0,0,0-2.81c.77-5.11-.25-9.46,0-14.83m36.06,92.06c0,3.83-.26,8.18-.26,11.5.26,2.05.77,4.1-.51,6.15a21.88,21.88,0,0,1-2.81,4.6c-2,2.81-4.86,3.57-9.21,4.34-7.16,1.29-14.32.77-22.5,0,.25-14.32-.77-26.08,0-43.72,6.91-1,9.72-.26,16.88-.26,1.27,0,2.56-.26,3.83-.26,3.07-.25,9.21,1.54,11,3.33s3.58,6.39,3.58,10.23Zm-56.26,56.51c5.37.26,11,.52,16.37.26,2.81,0,5.11-.26,7.41-.26,5.37-.76,13.81,0,20.21,0a61,61,0,0,0,10-.76c2.81-.77,5.62-.51,7.67-2.3,2.81-.77,5.37-1,6.39-3.33,2.82-2.3,6.65-4.6,9-7.67,2.81-3.32,4.34-7.93,6.13-12,2.3-4.86,4.35-11,4.35-15.85.76-1.28.51-2.81.76-4.1l.77-4.34c0-3.07-.77-5.89-.77-9l-.51-5.38-.51-4.85c-.76-2.82-2-4.61-3.07-6.91a40.67,40.67,0,0,0-2-4.6c-1.28-2.3-3.58-3.84-5.63-5.63l-6.13-5.37a40.57,40.57,0,0,0,10.74-17.89c2.81-7.93,4.08-15.35,2.81-24.3-.77-5.37-1-10.48-2.31-15.34l-2.3-5.37a47.23,47.23,0,0,0-5.37-9.46,21.49,21.49,0,0,0-3.06-4.1c-2.05-1.78-4.61-3.07-7.42-4.86-7.93-4.34-17.65-6.65-29.66-6.38-4.86,0-9.21.76-14.07.5-10.48,0-24-.5-31.45.26,1.28,11,.26,22,.26,33.25s.25,22.75.25,34c0,17.38,0,33.24-.77,48.58-.25,5.88.26,10.74.26,16.11,0,3.33.26,6.39.26,9.46-.77,13,.5,24.3-.26,36.32,1.28.25,2,1,3.07,1.27,2.3.77,5.62,0,8.69,0" style="fill:#fff"/></g></g></svg>