<svg xmlns="http://www.w3.org/2000/svg" viewBox="0 0 247.25 310.38"><g id="Lager_2" data-name="Lager 2"><g id="Lager_1-2" data-name="Lager 1"><path d="M8.55,309.76c-.28-.07-.48-.27-.82-.34.2-3.19-.14-6.18.07-9.65,0-.82-.07-1.63-.07-2.51,0-1.43-.14-2.72-.07-4.29.21-4.07.21-8.29.21-12.91,0-3-.07-6.05-.07-9a76.38,76.38,0,0,0-.07-8.83c2-.21,5.57-.07,8.36-.07,1.29.07,2.45-.14,3.74-.14a15.31,15.31,0,0,1,7.88,1.7,17.29,17.29,0,0,1,2,1.29,5.55,5.55,0,0,1,.82,1.09,13.15,13.15,0,0,1,1.43,2.51l.61,1.43a35.66,35.66,0,0,1,.61,4.08,12.86,12.86,0,0,1-.75,6.46,10.72,10.72,0,0,1-2.85,4.75l1.63,1.43a6.24,6.24,0,0,1,1.49,1.5,10.33,10.33,0,0,1,.55,1.22,11.46,11.46,0,0,1,.81,1.83l.14,1.3.14,1.42c0,.82.2,1.57.2,2.38l-.2,1.16a3,3,0,0,1-.21,1.08A10.89,10.89,0,0,1,33,302.83,12.82,12.82,0,0,1,31.31,306a13.41,13.41,0,0,1-2.37,2c-.28.61-1,.68-1.7.88-.55.48-1.29.41-2,.62a16.89,16.89,0,0,1-2.65.2,48,48,0,0,0-5.37,0c-.61,0-1.23.07-2,.07-1.43.07-2.93,0-4.35-.07A8.47,8.47,0,0,1,8.55,309.76Zm7.68-35.55a1.58,1.58,0,0,1,0,.75,40.91,40.91,0,0,1,0,7,35.65,35.65,0,0,0,5.37,0,7.93,7.93,0,0,0,2.92-1.63,20.61,20.61,0,0,0,.13-3.6c0-.48.07-.75.07-1.22a14.41,14.41,0,0,0-.07-1.84c-.06-.81-.4-1.56-.47-2.38-1.43-1.83-5.17-1.22-7.95-1C16.16,271.7,16.43,272.86,16.23,274.21Zm9.58,19.44a4.53,4.53,0,0,0-.95-2.72,5.17,5.17,0,0,0-2.92-.88c-.34,0-.68.07-1,.07a24.85,24.85,0,0,0-4.49.07c-.2,4.69.07,7.81,0,11.62a22.15,22.15,0,0,0,6,0,3.35,3.35,0,0,0,2.45-1.16,6.19,6.19,0,0,0,.75-1.22,2.26,2.26,0,0,0,.13-1.63c0-.88.07-2,.07-3.06Z" style="fill:#1d1a55"/><path d="M40,309.35c0-1.36,0-2.85.07-5a17.32,17.32,0,0,0,.06-3.74,16.07,16.07,0,0,1,0-1.7c.07-1.42.07-2.92.07-4.48,0-2.79.21-6,0-9.52-.07-1.56.21-3.05.21-4.69,0-1.29-.07-2.31,0-3.73.06-1.84.13-4,.13-6.26,0-2.92-.13-5-.07-7.68.07-.2.28-.34.21-.61a41.64,41.64,0,0,1,5-.2,55.83,55.83,0,0,1,12,1,7.42,7.42,0,0,1,2.38.88c.06.2.2-.2.4,0a11.28,11.28,0,0,1,3.67,4.15,7.21,7.21,0,0,0,.89,2,13,13,0,0,1,.47,2,22.68,22.68,0,0,1,.07,3.8,8.1,8.1,0,0,1,.07,1.84,21.21,21.21,0,0,1-.61,4.14,9.94,9.94,0,0,1-1.16,3.06,13.73,13.73,0,0,1-3.19,3.4,5,5,0,0,1-1.5,1.22,28,28,0,0,0,1.63,4.83c.34,1.29.75,2.51,1.23,3.81l1.29,3.73c.75,1.84,1.36,3.74,2,5.71.34.89.88,1.63.54,2.52a10.88,10.88,0,0,1-5.57.13c-1-.2-1.77-.47-2.58-.54-.61-2-1.23-3.81-2-6-.48-1.36-.75-2.72-1.23-4.15-.74-2.38-1.49-4.62-2.31-7a4.64,4.64,0,0,1-.54-1.63,6.54,6.54,0,0,1-2.79,0c-.2,3.2-.34,6.66-.27,10,0,.27-.07.55-.07.82.07,1.83.14,3.6.07,5.3v1.83c-.07.48-.34.68-.34,1.16a10.19,10.19,0,0,1-4.82.34A13.32,13.32,0,0,1,40,309.35ZM41,262.66c0-.07.21-.2,0-.2C41,262.66,40.7,262.66,41,262.66Zm7.89,19.44c2.92.07,5.64.07,7.34-1.09.47-.47.41-.95.61-1.77a15.64,15.64,0,0,0,.2-3.05c-.06-1.43.21-3.13-.27-4.15a2.49,2.49,0,0,0-1.29-1.22,9.19,9.19,0,0,0-3.94-.41c-.75.07-1.84,0-2.72,0,0,2.51.07,5.91,0,8.7A8.7,8.7,0,0,0,48.92,282.1Z" style="fill:#1d1a55"/><path d="M99.15,264.43l-.21.34a3.36,3.36,0,0,1-.34.81c-.61,1.57-1.29,3.06-1.9,4.42l-.48.82c-.27.74-.47,1.56-.81,2.31-.75,1.36-1.09,2.78-1.84,4.35-1.29,2.78-2.51,5.91-3.6,8.63a19.3,19.3,0,0,0-1.29,3.19c-.07,2.93.27,6.39.07,9.38-.07,1.63-.14,3.33-.14,5,0,2.11.27,4.28.07,6.12-.34.2-.61.07-1,.07-1.16.07-2.38.4-3.67.4l-2-.13a5.61,5.61,0,0,1-1.84-.34c0-.82,0-1.84.07-2.92s.14-2,.14-3.06L80.25,302c-.2-4.35-.07-8.83.14-13.18l-1.7-3.94a10.18,10.18,0,0,0-1-2.79c-1.63-3.54-3.13-7.21-4.55-11.28-.62-1.91-1.64-3.61-2.38-5.44a12.71,12.71,0,0,0-1.23-2.79,1.32,1.32,0,0,0,.28-.54,47.17,47.17,0,0,1,8.15,0,1.86,1.86,0,0,0,.88,0c1.09,2.79,2,5.64,3.06,8.7a27.06,27.06,0,0,0,1,3c.48,1.29,1.23,2.58,1.7,3.94.82-1.63,1.5-3.33,2.24-4.89l.28-.89c1.29-3,2.44-6.45,3.53-9.65a37.75,37.75,0,0,1,8.77-.06C100,262.73,99.49,263.68,99.15,264.43Z" style="fill:#1d1a55"/><path d="M130.82,266.81a8.4,8.4,0,0,1-.95,3.39c-.34.21-.61-.06-1-.06a21.38,21.38,0,0,0-3.67,0c-.89,0-1.77.06-2.79,0h-.95c-.34-.07-.34-.28-.68-.07a22.32,22.32,0,0,0-.07,5.23c0,1-.14,2-.14,3.06,0,.75.14,1.56.14,2.38,0,1.29-.14,2.51-.2,3.4a10.58,10.58,0,0,1,.13,2.51c0,.21.14.34.14.55a27.64,27.64,0,0,1,0,4.07c0,1.36-.07,2.72-.07,4.08-.07,1.16,0,2.31,0,3.6s0,2.59,0,3.88c0,2.51-.27,4.62-.27,7.14-1,.06-2,.4-3,.4-.07,0-.14-.07-.21-.07a8.93,8.93,0,0,1-2.71-.13,5,5,0,0,1-2.38-.61c.2-2.45,0-4.69,0-7.34,0-2.38.27-4.56.27-7.07s-.07-5.23-.07-7.95-.27-5.3-.07-8c.21-2.1-.07-3.8.14-5.91a12.14,12.14,0,0,0,.07-3.13c-1.7-.06-3.4,0-5.24,0-.74,0-1.56-.13-2.31-.13a5.28,5.28,0,0,1-2.1-.27,13.79,13.79,0,0,1,.4-7.95,49.71,49.71,0,0,1,5.51.13c4.89.07,10.4-.13,15.36.07a31.68,31.68,0,0,0,5,.07c.2,0,.41-.27.61-.21s.75,1.91.75,2.25A12.29,12.29,0,0,1,130.82,266.81Z" style="fill:#1d1a55"/><path d="M160.86,308.88c.07.34.34.47.14.81a53.14,53.14,0,0,1-8.09.21.71.71,0,0,0-.34-.27,14.27,14.27,0,0,0-.68-3.13,56,56,0,0,1-1.29-5.91c-3.33-.21-5.78.2-9.24.2-.75,3-1.16,6.18-2.18,9.11a40.56,40.56,0,0,1-8,.07c-.27-.21-.14-.55-.07-.89.34-1.56.61-3.53.89-5.37a13,13,0,0,0,.4-2.17c.34-1.63.55-3.2.89-4.83l.68-2.51a4.05,4.05,0,0,1,.41-1.7c.2-1.36.34-3.26.61-4.9l.54-2.1.2-1.16c.21-.47.55-.88.34-1.36.07-.2.21-.13.28-.34.2-1.7.74-4.08,1.08-6.32a8,8,0,0,1,.48-1.77,4.88,4.88,0,0,1,.34-1.76,3.36,3.36,0,0,0,.34-1.23c.2-1.15.34-2.44.54-3.73l.21-1c.2-.74.27-1.9.54-2.78a5.77,5.77,0,0,1,.75-2.18,35.61,35.61,0,0,1,10.06-.06c.2,0,.13.27.34.2a62.55,62.55,0,0,0,1.29,6.46l.34,2.17.54,2c.55,2.11.88,4.15,1.36,6.32.75,4.08,1.77,7.75,2.58,12.1.28,1.29.48,2.52.68,3.81.21,1,.68,2,.95,3.12.48,2.18.82,4.42,1.36,6.6l.34,1.69.28,1.64Zm-12-16.79c-.54-2.65-1-5.51-1.76-8.5-.34-1.56-1.3-3.53-1.3-5.09-.81,4.62-1.9,9.1-3,13.73A44.17,44.17,0,0,0,148.83,292.09Z" style="fill:#1d1a55"/><path d="M173,310a26,26,0,0,1-7-.4c-.07-1.09-.14-2.38-.14-3.67s.07-2.59.14-3.88a22.24,22.24,0,0,1,7.34-.07,7.75,7.75,0,0,1,.41,3.61c-.07,1.29-.14,2.58-.34,3.87Z" style="fill:#3065af"/><path d="M208.1,309.29c0,.2-.27.2-.21.47a57.13,57.13,0,0,1-5.84.07c-.88-.07-1.77-.2-2.58-.2a7.55,7.55,0,0,0-.82-1.84c-.81-2.38-1.9-4.42-2.79-6.86a17.08,17.08,0,0,1-1.29-3.33l-1.36-3.47c-1-2.79-2.44-5.44-3.73-8.36a6.54,6.54,0,0,1-.62-1.63c-.2-.07-.27-.48-.34-.68-.06,4.89.07,9.31.14,14,0,.81,0,1.63.07,2.45s.13,1.7.13,2.51c0,.61-.13,1.22-.13,1.77a42.41,42.41,0,0,0-.21,5.16c-.27.07-.4-.06-.47.21-2.38.81-5.1.47-7.75,0a2.67,2.67,0,0,1,0-1.91,4.5,4.5,0,0,1-.14-1.63,17.63,17.63,0,0,0,.07-2.72c-.07-.88-.2-1.69-.2-2.44a21.88,21.88,0,0,1,.13-2.92c.07-1.7-.13-3.13-.06-5v-5.23c0-.82.13-1.63.06-2.38-.06-2.17.14-4.48.14-6.86-.07-5.17-.27-10.33,0-16.11a26.8,26.8,0,0,1,7.41-.27c.07.2.13.07.34.13a18.73,18.73,0,0,1,1.63,3.95c1.29,1.9,1.84,4.34,2.85,6.45.82,1.84,1.64,3.6,2.38,5.44A92.7,92.7,0,0,0,199.67,289l.27-4.28c.07-1.56,0-2.92-.07-4.48,0-3,.07-6.05,0-9.11v-1.84c0-2.65-.06-4.62,0-7.06a17.88,17.88,0,0,1,8.09.2c.07,1.56.07,3,.07,4.55s.07,3.06.07,4.62-.21,3.13-.21,4.69c.21,5.17-.27,10.67-.06,15.3.06,1.15,0,2.38,0,3.67.06,2.38.06,4.82.27,7.2S207.89,307,208.1,309.29Z" style="fill:#1d1a55"/><path d="M230.6,309.76a18,18,0,0,1-6.32.34,11.59,11.59,0,0,1-2.45-.47c-.55-.21-1.09-.48-1.63-.75s-1.16-.55-1.63-.89c-.62-.47-.82-.95-1.57-1.42-.88-1.29-2-2.25-2.51-3.81a14.33,14.33,0,0,1-.54-2.38,39.65,39.65,0,0,1-.28-5c0-.81.14-1.56.21-2.31,0-1.09-.48-2.58,0-3.4-.28-.06-.14-.68-.14-1.15,0-3.33-.2-6.05,0-10.13.21-3.53,0-7.14,0-10.67a29.33,29.33,0,0,0,0-5c.07-.21.27-.21.27-.48l3.13-.54c1.63-.2,3.26.34,4.89.41.61.61-.07,2.24.27,2.92-.27.2.07.54-.13.75a33.31,33.31,0,0,1,.13,3.8c0,1.36.07,2.72,0,4.15,0,2.38.07,5.1.07,8l-.2,8.36c-.07,2.11.07,4.21.13,6.05a8.19,8.19,0,0,0,.28,3.46,3.29,3.29,0,0,0,2.58,2.11A7,7,0,0,0,227,302a2.17,2.17,0,0,0,.62-.21c.2-.07.4,0,.61-.07A3.82,3.82,0,0,0,230.6,300c.2-.27.13-.68.2-1a2.26,2.26,0,0,0,0-1.63,37.35,37.35,0,0,0,0-5.5c-.07-1.7-.07-4-.07-5.44,0-.07.21-.41-.07-.41,0-.2.21.07.14-.2,0-2.38.14-5,.2-7.48v-4.62c0-1.84-.06-3.4-.06-5.37,0-.34.13-.68.13-1s-.07-.61-.07-1l.14-4.08a6.41,6.41,0,0,1,1.77-.41,8.69,8.69,0,0,1,1.76-.13,7.76,7.76,0,0,1,4.69.41c.07.2,0,.4.21.47.2,3.81-.41,6.87-.21,10.47.07,1.29.07,2.44.07,3.8,0,2.65-.07,5-.07,7.55a57.32,57.32,0,0,1-.06,6.79c.27,1.64-.14,3.67-.07,5.51a19.06,19.06,0,0,1,.13,2.79,6.84,6.84,0,0,1-.34,1c-.2.74-.27,1.9-.54,2.78-.07.21-.2.21-.2.41s0,.2-.07.41l-.41.54a6.49,6.49,0,0,1-1.49,1.84,11.18,11.18,0,0,1-1.3,1.22c-.2.2-.54.2-.81.41a6.67,6.67,0,0,1-.68.47l-.82.34-.88.55ZM214,262.59c.06.07.13.07.27.07C214.22,262.46,214,262.52,214,262.59Z" style="fill:#1d1a55"/><path d="M0,235V16L17.42,0,235.94,0c4.5,0,11.31,4.43,11.31,11.53V235.75a12,12,0,0,1-11.44,11.5H11.56Z" style="fill:#1d1a55"/><path d="M0,41.64S.18,60,0,61.15s17.92-1.27,18-4.09S7.67,41.7,0,41.64Z" style="fill:#3065af"/><path d="M20.61,29.3c2.72-.37,27.52-4.37,29.51-1.51,1.35,1.93,1.66,16.93-.83,16.86C23.55,43.93,17.81,40.59,16,38.28,15,37.1,17.57,29.71,20.61,29.3Z" style="fill:#3098d5"/><path d="M16,89.57c1.75-.58,25.58-8.56,27.53-8,4,1.16,8.39,25.68,4.63,25.19s-34.62-3.89-36.8-5.74S14.51,90,16,89.57Z" style="fill:#3098d5"/><path d="M11.47,247.26H70.12s13.29-89.56,2-102.66S3.49,149.06,0,150.39V236A12,12,0,0,0,11.47,247.26Z" style="fill:#274193"/><path d="M93.9,247.25h22.4s56-104.89,52.75-105.36-60.65-3.53-70-3.24C90.45,138.91,86.1,247.25,93.9,247.25Z" style="fill:#3065af"/><path d="M152,247.27H232S215.43,225.74,211.73,224c-2.21-1-50.72-12.58-52.79-6.88C157.16,222,147.62,247.27,152,247.27Z" style="fill:#3065af"/><path d="M166.57,202.25c-3.46-2.56,12.74-48.95,16.69-46.48s20.17,36.58,19.52,38.91S170.32,205,166.57,202.25Z" style="fill:#3098d5"/><path d="M247.25,233.14V12.64S210.89,55.31,208.75,61s-5.84,37.55-4.87,54.48,1.56,34.83,7.4,45.92S238.29,226.72,247.25,233.14Z" style="fill:#274193"/><path d="M93.44,120.86c4.39,2.81,53,3.59,59.85-3.61,3.35-3.54-32.79-49.61-36.06-52-3.69-2.72-16.92-3.53-19.45,1.15S87.11,116.82,93.44,120.86Z" style="fill:#274193"/><path d="M132.74,66.67c1.21-3.77,32.1-24.7,36.51-22s22.91,24.64,22.31,28.4-2.36,59.89-9.35,59.11S130,75.32,132.74,66.67Z" style="fill:#3065af"/><path d="M107.82,24.37c12.11-1.69,40.21,4.37,40,7s-33.1,4.39-40,8C105.26,40.71,103.66,25,107.82,24.37Z" style="fill:#3098d5"/><path d="M159,0h73s-34.58,57.11-37.88,56.53S148.26,0,159,0Z" style="fill:#274193"/><path d="M0,23.22V12A12,12,0,0,1,12,0h27.9C37.47.44,14.41-1.13,0,23.22Z" style="fill:#3065af"/></g></g></svg>