<svg id="Lager_1" data-name="Lager 1" xmlns="http://www.w3.org/2000/svg" viewBox="0 0 512 512"><circle cx="256" cy="256" r="252" style="fill:#bde3f4"/><path d="M130.59,380.72c-4.63,0-12.11.72-12.47-3.91-5-62.7-12.46-151.4-19.94-241.16-.36-2.85,2.84-4.28,10-4.28,10.69,0,13.54.36,13.89,3.92,4.28,66.26,7.13,110.78,11,170.63,0,1.07.36,3.56,2.14,3.56,2.14,0,2.5-2.49,2.5-3.92,3.91-34.55,6.77-61.27,10-91.9.35-3.21,2.14-4.28,8.55-4.28,7.12,0,8.9.72,9.26,4.28,3.57,33.48,5.7,58.06,9.62,93.33,0,1.07.36,3.56,2.14,3.56,2.13,0,2.49-2.49,2.49-3.92,3.92-63,7.48-121.11,10.69-171.7.35-3.56,1.42-3.56,9.61-3.56,9.62,0,12.47-.71,12.12,3.92-4.64,55.93-14.61,176.33-19.95,241.52-.36,4.63-2.5,3.91-11.76,3.91-4.63,0-6.77-.35-7.48-3.91-5-27.79-8.91-49.52-14.25-78-.35-1.42-.35-3.91-2.49-3.91-1.78,0-1.78,2.49-2.14,3.56-5,27.07-8.9,46.31-15,78C138.43,381.08,135.58,380.72,130.59,380.72Z"/><path d="M252.78,284.94v90.13c0,5.69-2.49,5.69-12.11,5.69-9.26,0-10.69,0-10.69-5V142.45c0-3.56.36-6.77,2.5-8.9,2.85-2.5,5.34-2.14,8.19-2.14H262c12.12,0,26.72,2.85,37.41,12.47,10.68,10,13.18,22.08,13.18,37v46.31c0,8.2,0,20-12.82,34.91-12.12,13.54-29.22,15.32-40.26,15.32C255.28,277.46,252.78,280,252.78,284.94Zm12.83-130c-4.28,0-10,0-11.4,2.49a12.17,12.17,0,0,0-1.07,6.06v79.44c0,3.92-.71,8.55,2.49,10.33,1.79,1.07,5,.71,8.2.71a24.67,24.67,0,0,0,18.52-7.48c7.13-7.84,7.13-11.4,7.13-18.88V180.92c0-8.19-1.43-14.24-7.48-20.66C278.07,156.7,273.45,154.92,265.61,154.92Z"/><path d="M318.08,360.61c.9,0,1.62,18.16.72,18.88-2.33,2.14-20.59.35-22.92.71-6.08,1.07-9.84.36-16.11,0-3,0-8.23,0-11.46-.71-1.07-.36-.89-18.17.18-18.88,2.69-1.43,7.88-.71,10.38-.71,5.55-.36,9,.35,14.33.35C296.42,360.25,314.86,360.61,318.08,360.61Z"/><path d="M331.2,142.29c0-3.56,0-6.76,2.14-8.9,2.85-2.49,5.7-2.14,8.55-2.14h20.3c11,0,26.72,2.85,37.41,12.47,10.68,10,13.17,24.22,13.17,37.05v32.06c0,8.55.36,14.6-3.91,22.44-5.35,10-16.39,12.82-16.39,14.25s12.11,3.56,17.46,14.25c4.27,8.54,3.91,13.89,3.91,22.44v44.17c0,8.9,0,19.95-12.82,34.91-12.11,13.53-28.86,15.32-37.41,15.32-6.41,0-11,.35-17.45,0-4.27-.36-10.68.35-12.11-1.79-2.14-3.2-2.85-2.49-2.85-12.11Zm34.55,12.47c-5,0-8.9,0-10.33,2.5a12.13,12.13,0,0,0-1.07,6.05v66.62c0,3.91-.35,7.12,2.14,9.61,2.14,2.14,3.57,1.78,6.41,1.78,5,0,13.19-1.07,19.6-7.83,7.12-7.84,7.12-13.18,7.12-18.88V180.77c0-8.2-1.43-14.25-7.48-20.66C378.22,156.55,375.73,154.76,365.75,154.76ZM357.92,357.1a37.23,37.23,0,0,0,6.41.35c3.92,0,12.82-1.07,19.24-7.84,7.12-7.83,7.48-12.82,7.48-18.88V285.14c0-16.39-9.62-23.51-20.31-23.51-15.32,0-16.39,1.07-16.39,9.62v74.8C354.35,350,354.71,356.74,357.92,357.1Z"/></svg>