<svg id="Lager_1" data-name="Lager 1" xmlns="http://www.w3.org/2000/svg" xmlns:xlink="http://www.w3.org/1999/xlink" viewBox="0 0 512 512"><defs><clipPath id="clip-path"><rect width="512" height="511.75" rx="38.72" style="fill:none"/></clipPath></defs><g style="clip-path:url(#clip-path)"><rect x="0.24" y="-2.91" width="514.4" height="514.4" style="fill:#061c58"/><path d="M.37,83.7s.38,38.15,0,40.57,37.27-2.63,37.48-8.5S16.33,83.8.37,83.7" style="fill:#2567ac"/><path d="M43.66,58c5.66-.77,57.26-9.09,61.4-3.13,2.81,4,3.45,35.23-1.73,35.08C49.79,88.45,37.85,81.5,34,76.7c-2-2.46,3.33-17.84,9.65-18.69" style="fill:#3098d0"/><path d="M34,183.39c3.64-1.19,53.23-17.8,57.27-16.62,8.3,2.43,17.47,53.43,9.64,52.42s-72-8.1-76.55-11.94S31,184.39,34,183.39" style="fill:#3098d0"/><path d="M.86,310v201.5l145.88.26s27.65-186.58,4.18-213.83S8.12,307.21.86,310" style="fill:#004393"/><path d="M196.22,511.75h46.37s116.66-218.51,109.9-219.5-126.18-7.34-145.72-6.75C189,286.05,180,511.75,196.22,511.75" style="fill:#2567ac"/><path d="M317.11,511.75H483.39S449,467,441.27,463.34c-4.59-2.16-105.51-26.18-109.83-14.31-3.68,10.15-23.55,62.72-14.33,62.72" style="fill:#2567ac"/><path d="M347.34,417.83c-7.22-5.33,26.49-101.83,34.71-96.7s42,76.1,40.6,80.95-67.52,21.51-75.31,15.75" style="fill:#3098d0"/><path d="M514.64,482.09V23.35S439,112.13,434.53,123.86,422.39,202,424.41,237.21s3.24,72.45,15.38,95.52,56.19,136,74.85,149.36" style="fill:#004393"/><path d="M195.18,248.51c9.15,5.84,110.34,7.46,124.51-7.51,7-7.38-68.21-103.22-75-108.23-7.69-5.67-35.22-7.35-40.48,2.4s-22.19,104.92-9,113.34" style="fill:#004393"/><path d="M277,135.77c2.53-7.84,66.78-51.39,76-45.81S400.56,141.2,399.32,149s-4.92,124.59-19.46,123S271.16,153.75,277,135.77" style="fill:#2567ac"/><path d="M225.11,47.76c25.19-3.51,83.65,9.09,83.18,14.47s-68.86,9.12-83.18,16.71c-5.35,2.82-8.66-30,0-31.18" style="fill:#3098d0"/><path d="M331.6-2.64H483.38S411.46,116.17,404.58,115s-95.35-117.6-73-117.6" style="fill:#004393"/><path d="M83.74-2.83H.79V45.34S23.44-1.7,83.74-2.83" style="fill:#004393"/></g></svg>