<svg xmlns="http://www.w3.org/2000/svg" viewBox="0 0 175.85 175.94"><g id="Lager_2" data-name="Lager 2"><g id="Lager_1-2" data-name="Lager 1"><rect width="175.85" height="175.85" style="fill:#1d1a55"/><path d="M.05,29.61s.12,13,0,13.87,12.74-.9,12.81-2.91S5.5,29.64.05,29.61Z" style="fill:#3065af"/><path d="M14.84,20.82c1.94-.26,19.58-3.1,21-1.07,1,1.38,1.17,12.05-.6,12-18.3-.52-22.38-2.9-23.69-4.54C10.87,26.37,12.68,21.12,14.84,20.82Z" style="fill:#3098d5"/><path d="M11.55,63.69c1.24-.41,18.19-6.09,19.57-5.69,2.84.83,6,18.27,3.3,17.92S9.8,73.16,8.25,71.84,10.51,64,11.55,63.69Z" style="fill:#3098d5"/><path d="M.21,107v68.89l49.87.09s9.45-63.79,1.43-73.1S2.69,106,.21,107Z" style="fill:#274193"/><path d="M67,175.94H82.85s39.88-74.7,37.57-75S77.28,98.39,70.6,98.59C64.52,98.78,61.45,175.94,67,175.94Z" style="fill:#3065af"/><path d="M108.32,175.94h56.84s-11.76-15.32-14.39-16.56c-1.57-.73-36.07-8.94-37.55-4.88C112,158,105.17,175.94,108.32,175.94Z" style="fill:#3065af"/><path d="M118.66,143.83c-2.47-1.83,9-34.81,11.86-33.06s14.34,26,13.88,27.67S121.32,145.8,118.66,143.83Z" style="fill:#3098d5"/><path d="M175.85,165.8V9S150,39.32,148.46,43.34,144.31,70,145,82.08s1.11,24.77,5.26,32.66S169.47,161.23,175.85,165.8Z" style="fill:#274193"/><path d="M66.64,86c3.13,2,37.72,2.55,42.56-2.57,2.39-2.52-23.31-35.29-25.64-37-2.62-1.94-12-2.51-13.83.82S62.14,83.07,66.64,86Z" style="fill:#274193"/><path d="M94.59,47.41c.87-2.68,22.83-17.57,26-15.66s16.29,17.51,15.87,20.19-1.69,42.59-6.66,42S92.61,53.55,94.59,47.41Z" style="fill:#3065af"/><path d="M76.87,17.32c8.61-1.2,28.6,3.11,28.44,4.95S81.77,25.38,76.87,28C75.05,29,73.91,17.73,76.87,17.32Z" style="fill:#3098d5"/><path d="M113.28.09h51.88s-24.59,40.62-26.94,40.2S105.63.09,113.28.09Z" style="fill:#274193"/><path d="M28.55,0H.19V16.49S7.93.41,28.55,0Z" style="fill:#274193"/></g></g></svg>