<svg xmlns="http://www.w3.org/2000/svg" viewBox="0 0 175.34 175.43"><g id="Lager_2" data-name="Lager 2"><g id="Lager_1-2" data-name="Lager 1"><rect width="175.34" height="175.34" style="fill:#006875"/><path d="M.05,29.52s.12,13,0,13.83,12.7-.9,12.77-2.9S5.49,29.56.05,29.52" style="fill:#5c9fac"/><path d="M14.8,20.76c1.93-.26,19.52-3.09,20.93-1.07,1,1.38,1.18,12-.59,12-18.25-.51-22.32-2.88-23.63-4.52-.67-.83,1.14-6.08,3.29-6.37" style="fill:#a4c7cf"/><path d="M11.51,63.5c1.24-.4,18.14-6.07,19.52-5.66,2.83.83,6,18.21,3.29,17.87S9.77,73,8.22,71.64s2.26-7.8,3.29-8.14" style="fill:#a4c7cf"/><path d="M.21,106.65v68.69l49.73.09s9.42-63.6,1.42-72.89S2.69,105.71.21,106.65" style="fill:#218b9a"/><path d="M66.8,175.43H82.61s39.76-74.48,37.46-74.82-43-2.5-49.67-2.3c-6.07.18-9.13,77.12-3.6,77.12" style="fill:#5c9fac"/><path d="M108,175.43h56.68s-11.73-15.27-14.36-16.5c-1.56-.74-36-8.93-37.43-4.88-1.26,3.46-8,21.38-4.89,21.38" style="fill:#5c9fac"/><path d="M118.31,143.42c-2.46-1.82,9-34.72,11.84-33s14.3,25.94,13.84,27.6-23,7.33-25.68,5.37" style="fill:#a4c7cf"/><path d="M175.34,165.32V9S149.55,39.21,148,43.21s-4.13,26.63-3.44,38.64,1.1,24.69,5.24,32.56,19.15,46.36,25.51,50.91" style="fill:#218b9a"/><path d="M66.45,85.7c3.12,2,37.61,2.54,42.44-2.56C111.27,80.63,85.64,48,83.33,46.25c-2.63-1.93-12-2.51-13.8.82S62,82.83,66.45,85.7" style="fill:#218b9a"/><path d="M94.32,47.27c.86-2.67,22.77-17.52,25.89-15.61S136.46,49.12,136,51.79s-1.67,42.47-6.63,41.92S92.35,53.4,94.32,47.27" style="fill:#5c9fac"/><path d="M76.65,17.27c8.59-1.2,28.51,3.1,28.36,4.93s-23.48,3.11-28.36,5.7c-1.82,1-3-10.22,0-10.63" style="fill:#a4c7cf"/><path d="M113,.09h51.74s-24.52,40.5-26.87,40.09S105.32.09,113,.09" style="fill:#218b9a"/><path d="M28.47,0H.19V16.45S7.91.41,28.47,0" style="fill:#218b9a"/></g></g></svg>