<svg xmlns="http://www.w3.org/2000/svg" viewBox="0 0 175.39 175.48"><g id="Lager_2" data-name="Lager 2"><g id="Lager_1-2" data-name="Lager 1"><rect width="175.39" height="175.39" style="fill:#971b81"/><path d="M.05,29.53s.12,13,0,13.83,12.7-.89,12.77-2.9S5.49,29.57.05,29.53Z" style="fill:#af5ea1"/><path d="M14.8,20.77c1.94-.26,19.53-3.1,20.94-1.07,1,1.37,1.18,12-.59,12-18.26-.51-22.33-2.88-23.63-4.52C10.85,26.3,12.65,21.06,14.8,20.77Z" style="fill:#c895c3"/><path d="M11.52,63.52c1.24-.41,18.14-6.07,19.52-5.67,2.83.83,6,18.22,3.29,17.88S9.77,73,8.23,71.65,10.48,63.86,11.52,63.52Z" style="fill:#c895c3"/><path d="M.21,106.68v68.71l49.74.09s9.43-63.62,1.42-72.91S2.69,105.74.21,106.68Z" style="fill:#a43e90"/><path d="M66.82,175.48H82.63S122.41,101,120.1,100.64s-43-2.51-49.68-2.3C64.35,98.52,61.29,175.48,66.82,175.48Z" style="fill:#af5ea1"/><path d="M108,175.48h56.69S153,160.2,150.37,159c-1.56-.74-36-8.93-37.44-4.88C111.67,157.55,104.9,175.48,108,175.48Z" style="fill:#af5ea1"/><path d="M118.35,143.45c-2.47-1.82,9-34.72,11.83-33s14.31,26,13.85,27.6S121,145.42,118.35,143.45Z" style="fill:#c895c3"/><path d="M175.39,165.36V9s-25.8,30.27-27.32,34.27-4.14,26.64-3.45,38.65,1.11,24.7,5.25,32.57S169,160.81,175.39,165.36Z" style="fill:#a43e90"/><path d="M66.47,85.72c3.12,2,37.62,2.55,42.45-2.56C111.3,80.65,85.66,48,83.35,46.26c-2.63-1.93-12-2.5-13.8.82S62,82.85,66.47,85.72Z" style="fill:#a43e90"/><path d="M94.35,47.28c.86-2.67,22.77-17.52,25.89-15.62s16.25,17.48,15.83,20.15-1.68,42.48-6.64,41.92S92.37,53.41,94.35,47.28Z" style="fill:#af5ea1"/><path d="M76.67,17.28c8.59-1.2,28.52,3.1,28.36,4.93s-23.48,3.11-28.36,5.7C74.85,28.87,73.72,17.69,76.67,17.28Z" style="fill:#c895c3"/><path d="M113,.09h51.75s-24.52,40.51-26.87,40.1S105.35.09,113,.09Z" style="fill:#a43e90"/><path d="M28.47,0H.19V16.45S7.91.41,28.47,0Z" style="fill:#a43e90"/></g></g></svg>